<svg aria-hidden="true" style="width:0;height:0;position:absolute;overflow:hidden" xmlns="http://www.w3.org/2000/svg"><defs><symbol id="menu-open" viewBox="0 0 57 32"><path d="M56.889 1.778c0 .982-.796 1.778-1.778 1.778H1.778a1.778 1.778 0 1 1 0-3.556h53.333c.982 0 1.778.796 1.778 1.778zm0 28.444c0 .982-.796 1.778-1.778 1.778H1.778a1.778 1.778 0 1 1 0-3.556h53.333c.982 0 1.778.796 1.778 1.778zm0-14.236c0 .974-.79 1.764-1.764 1.764H1.763a1.764 1.764 0 0 1 0-3.528h53.362c.974 0 1.764.789 1.764 1.764z"/></symbol><symbol id="phone-icon" viewBox="0 0 32 32"><path d="m25.64 20.347-3.387-.387a2.641 2.641 0 0 0-2.186.76l-2.453 2.453c-3.803-1.962-6.824-4.984-8.734-8.675l-.053-.112 2.467-2.467a2.656 2.656 0 0 0 .76-2.187l-.387-3.36a2.671 2.671 0 0 0-2.65-2.36H6.708c-1.507 0-2.76 1.253-2.667 2.76.707 11.387 9.813 20.48 21.187 21.187 1.507.093 2.76-1.16 2.76-2.667v-2.307c.013-1.347-1-2.48-2.347-2.64z"/></symbol></defs></svg>