<svg aria-hidden="true" style="position: absolute; width: 0; height: 0; overflow: hidden;" version="1.1" xmlns="http://www.w3.org/2000/svg" xmlns:xlink="http://www.w3.org/1999/xlink">
<defs>
<symbol id="menu-open" viewBox="0 0 57 32">
<path d="M56.889 1.778c0 0.982-0.796 1.778-1.778 1.778v0h-53.333c-0.982 0-1.778-0.796-1.778-1.778s0.796-1.778 1.778-1.778v0h53.333c0.982 0 1.778 0.796 1.778 1.778v0zM56.889 30.222c0 0.982-0.796 1.778-1.778 1.778v0h-53.333c-0.982 0-1.778-0.796-1.778-1.778s0.796-1.778 1.778-1.778v0h53.333c0.982 0 1.778 0.796 1.778 1.778v0zM56.889 15.986c0 0.974-0.79 1.764-1.764 1.764v0h-53.362c-0.974 0-1.764-0.79-1.764-1.764s0.79-1.764 1.764-1.764v0h53.362c0.974 0 1.764 0.789 1.764 1.764z"></path>
</symbol>
<symbol id="phone-icon" viewBox="0 0 32 32">
<path d="M25.64 20.347l-3.387-0.387c-0.093-0.012-0.201-0.018-0.31-0.018-0.733 0-1.396 0.297-1.876 0.778l-2.453 2.453c-3.803-1.962-6.824-4.984-8.734-8.675l-0.053-0.112 2.467-2.467c0.573-0.573 0.853-1.373 0.76-2.187l-0.387-3.36c-0.16-1.335-1.285-2.36-2.65-2.36-0.001 0-0.002 0-0.003 0h-2.306c-1.507 0-2.76 1.253-2.667 2.76 0.707 11.387 9.813 20.48 21.187 21.187 1.507 0.093 2.76-1.16 2.76-2.667v-2.307c0.013-1.347-1-2.48-2.347-2.64z"></path>
</symbol>
</defs>
</svg>